<svg width="208" height="30" viewBox="0 0 208 30" fill="none" xmlns="http://www.w3.org/2000/svg">
<path d="M10.2024 16.3611H16.1164V19.6389C19.2556 18.1667 20.4609 15.2222 20.4609 13.3056C20.4609 11.5278 19.8723 9.77778 18.8632 8.58333C17.7421 7.27778 16.0323 5.88889 13.1734 5.88889C10.819 5.88889 8.77294 7.16667 7.81997 8.27778C6.78291 9.47222 5.94206 10.7778 5.94206 13.1389C5.82994 15.75 7.59574 18.4722 10.2024 19.5833V16.3611ZM10.1744 27.75V25.8056C7.2594 24.9722 4.45654 23.3056 2.60666 20.8333C0.868886 18.5278 0 16 0 13C0 9.02778 1.87791 5.47222 4.56866 3.22222C7.0632 1.08333 9.89408 0 13.1174 0C17.2656 0 20.629 1.80556 23.1236 4.55556C25.2257 6.91667 26.3188 9.63889 26.3188 12.8056C26.3188 15.8889 25.4499 18.6667 23.516 21.0833C21.7782 23.1944 19.7321 24.7778 16.1164 25.7222L16.1445 27.6944H10.1744V27.75Z" fill="#B25333"/>
<path d="M40.3332 19.9167V25.7222C39.7446 25.8333 39.2121 25.75 38.7356 25.75C36.6615 25.6944 34.4472 25.4722 32.289 23.6389C30.4952 22.0556 29.2339 19.6111 29.0938 17.3333C28.9536 14.9722 29.9907 12.25 31.336 10.8611C33.242 8.91667 35.6244 7.72223 38.7076 7.72223C41.9028 7.72223 43.9209 8.66667 45.7427 10.5C47.5646 12.3333 48.3494 14.75 48.3494 17.8611V25.8056H42.4073V18.3333C42.3793 17.1667 42.2392 16.2222 41.9869 15.5833C41.6506 14.75 40.6696 13.5556 38.7636 13.5556C36.9418 13.5556 35.9047 14.5833 35.7085 14.8611C35.26 15.5556 34.9517 16.5278 35.1199 17.4167C35.3161 18.3333 35.8486 18.9444 36.4933 19.3889C36.9418 19.6944 37.6425 19.8333 38.2591 19.8611C38.8757 19.9444 39.7726 19.9167 40.3332 19.9167Z" fill="#2A4466"/>
<path d="M67.1562 8.02779C67.4365 8.02779 68.95 8.44445 69.3705 9.8889C69.8469 11.5278 68.4735 12.5833 68.4735 12.5833L60.4854 20.7222L69.6507 20.6945V25.75H53.6744C53.6744 25.75 52.5533 25.6111 51.9086 24.2222C51.264 22.8333 52.1889 21.8333 52.6094 21.4167C53.0298 21 60.8217 13.1389 60.8217 13.1389H50.7314V8.02779C50.7314 8.02779 66.6517 8.02779 67.1562 8.02779Z" fill="#2A4466"/>
<path d="M80.7506 0.277786H74.8926V25.75H80.7506V0.277786Z" fill="#B25333"/>
<path d="M119.71 0.416672H125.624V15.5278C125.624 18.7778 124.979 20.6944 123.522 22.5C122.681 23.5278 121.616 24.3333 120.298 24.9722C118.981 25.5833 117.664 25.8889 116.29 25.8889C113.543 25.8889 111.077 25.1389 109.199 23.25C107.321 21.3611 106.452 18.9444 106.452 16.25C106.452 13.6111 107.685 11.4722 109.591 9.58333C111.161 8.05556 113.431 7.22222 115.954 7.22222C116.374 7.22222 116.963 7.25 117.776 7.33333V13.9444C117.327 13.4722 116.458 13.25 116.038 13.25C115.001 13.25 113.964 13.5278 113.347 14.1667C112.815 14.6667 112.282 15.3889 112.282 16.6389C112.282 17.9444 112.759 18.6944 113.431 19.2778C114.216 19.9722 115.393 20.1389 116.122 20.1389C118.224 20.1389 119.654 18.75 119.654 15.3055V0.416672H119.71Z" fill="#2A4466"/>
<path d="M130.333 7.27777L136.247 7.30555L136.219 17.5555C136.331 18.3889 136.499 19.9167 138.405 19.9167C140.563 19.9167 140.676 18.3055 140.676 17.5555V7.33333H146.618V17.4167C146.59 19.7222 145.693 21.8611 144.347 23.3333C142.778 25.0555 140.76 25.8055 138.349 25.8055C135.602 25.8055 133.472 24.6111 131.987 22.5833C130.838 21.0555 130.501 19.3055 130.333 16.9167V7.27777Z" fill="#2A4466"/>
<path d="M85.9359 16.2222C86.1041 13.9167 86.3844 12.1944 87.5336 10.6389C89.0191 8.61111 91.2333 7.44444 93.9801 7.44444C96.3626 7.44444 98.4927 8.19444 100.034 9.91666C101.38 11.4167 102.221 13.5556 102.221 15.8333V25.8889H96.2785V15.6667C96.1383 15.0556 96.3065 13.25 94.0362 13.25C91.9901 13.25 91.9341 15.0555 91.8219 15.6389L91.7379 25.8333H85.8799V16.2222H85.9359Z" fill="#2A4466"/>
<path d="M170.694 0.13887V7.19442H174.982L175.01 12.9444L170.638 13C170.47 17.75 171.507 18.4166 171.983 18.9444C172.46 19.5 173.805 19.8333 175.066 19.8333V25.6389C174.674 25.6389 174.45 25.6389 174.225 25.6389C172.628 25.6389 171.114 25.25 169.685 24.5555C168.255 23.8611 167.134 22.8333 166.265 21.5833C165.2 20 164.64 17.8889 164.64 15.25V0.13887H170.694Z" fill="#2A4466"/>
<path d="M189.108 7.55557V13.6389C188.632 13.3611 187.959 13.3056 187.595 13.3334C185.661 13.3611 184.624 14.3334 184.624 16.3889V25.75H178.598V15.9167C178.598 13.3056 179.326 11.0556 180.84 9.5278C182.353 8.00002 184.4 7.36113 186.922 7.36113C187.483 7.36113 188.211 7.41669 189.108 7.55557Z" fill="#2A4466"/>
<path d="M163.21 7.38891L163.182 13.1389C161.164 13.1389 160.632 13.3889 160.267 13.75C159.37 14.6945 159.51 16.1389 159.398 17.1945C159.062 20.7778 158.081 22.9722 155.614 24.3889C154.269 25.1667 152.671 25.6667 150.177 25.6667L149.252 25.6389L149.28 19.7778H149.616C151.69 19.8056 152.223 19.4722 152.728 19.0556C153.456 18.4445 153.624 17.0278 153.709 15.8334C153.821 13.9445 153.989 12.6945 154.297 11.5556C154.493 10.7778 155.138 9.94446 155.895 9.16669C156.623 8.41669 158.445 7.36113 160.996 7.36113L163.21 7.38891Z" fill="#2A4466"/>
<path d="M191.659 7.52776L197.573 7.55553V17.7778C197.685 18.6111 197.853 20.1389 199.759 20.1389C201.918 20.1389 202.03 18.5278 202.03 17.7778V7.55553H207.972V17.6389C207.944 19.9444 207.047 22.0833 205.701 23.5555C204.861 24.4722 203.88 25.1944 202.758 25.6111C202.702 25.6389 202.758 29.9444 202.758 29.9444L196.872 29.9722C196.872 29.9722 196.872 25.5833 196.844 25.5833C195.079 24.75 194.21 23.9722 193.313 22.7778C192.164 21.25 191.827 19.5 191.659 17.1111V7.52776Z" fill="#2A4466"/>
</svg>
